<?xml version="1.0" encoding="iso-8859-1"?>
<!-- Generator: Adobe Illustrator 19.0.0, SVG Export Plug-In . SVG Version: 6.00 Build 0)  -->
<svg version="1.1" id="Capa_1" xmlns="http://www.w3.org/2000/svg" xmlns:xlink="http://www.w3.org/1999/xlink" x="0px" y="0px"
	 viewBox="0 0 512 512" style="enable-background:new 0 0 512 512;" xml:space="preserve">
<circle style="fill:#FFC66C;" cx="314.56" cy="136.06" r="40"/>
<polygon style="fill:#A0E557;" points="385.358,176.064 414.379,92.673 501.996,45.163 482.929,10 381.693,64.894 343.006,176.064 
	"/>
<path style="fill:#B28A67;" d="M92.436,176.064c-25.4,34.015-40.44,76.219-40.44,121.936c0,112.666,91.334,204,204,204
	s204-91.334,204-204c0-45.717-15.04-87.921-40.44-121.936H92.436z"/>
<polygon style="fill:#FE8F8D;" points="10.003,140.77 91.188,10.019 256.123,39.93 "/>
<path d="M52.074,308.979c5.513-0.042,9.951-4.559,9.923-10.072v-0.05c0-5.523-4.477-10-10-10s-10,4.477-10,10l0.001,0.245
	c0.056,5.487,4.52,9.876,9.998,9.876C52.022,308.979,52.049,308.979,52.074,308.979z"/>
<path d="M510.787,40.397L491.72,5.234c-1.264-2.332-3.403-4.065-5.945-4.82c-2.544-0.755-5.282-0.469-7.612,0.795L376.926,56.103
	c-2.19,1.188-3.859,3.151-4.678,5.504l-16.206,46.569c-7.206-10.684-18.426-18.446-31.48-21.106V58.091c0-5.523-4.477-10-10-10
	s-10,4.477-10,10V87.07c-22.795,4.646-40,24.847-40,48.994c0,11.247,3.735,21.637,10.027,30H173.867l-31.207-68.84l117.254-48.042
	c4.111-1.685,6.618-5.88,6.154-10.299s-3.789-8.001-8.161-8.794L92.972,0.18c-4.041-0.735-8.115,1.078-10.28,4.564L1.507,135.495
	c-2.287,3.684-1.94,8.421,0.86,11.732c1.942,2.296,4.757,3.543,7.639,3.543c1.273,0,2.559-0.243,3.789-0.747l110.347-45.211
	l27.767,61.251H92.436c-3.155,0-6.125,1.489-8.013,4.017c-20.167,27.008-33.795,58.791-39.409,91.913
	c-0.923,5.445,2.743,10.608,8.188,11.531c5.455,0.922,10.608-2.743,11.531-8.188c4.811-28.383,16.12-55.686,32.797-79.272h69.863
	c0.011,0,0.023,0.002,0.034,0.002c0.016,0,247.038-0.002,247.038-0.002c23.264,32.839,35.531,71.431,35.531,111.937
	c0,106.972-87.028,194-194,194c-93.5,0-173.718-66.611-190.74-158.387c-1.007-5.43-6.228-9.019-11.656-8.009
	c-5.43,1.007-9.016,6.226-8.009,11.656C64.37,438.512,152.859,512,255.996,512c57.162,0,110.901-22.26,151.321-62.679
	S469.996,355.162,469.996,298c0-46.515-14.671-90.749-42.427-127.919c-1.888-2.528-4.858-4.017-8.013-4.017h-20.129l23.123-66.446
	l84.212-45.664C511.617,51.322,513.419,45.252,510.787,40.397z M109.872,89.045l-6.374-56.324l48.617,39.016L109.872,89.045z
	 M173.269,63.07L128.19,26.893l92.455,16.766L173.269,63.07z M84.218,40.203l6.419,56.723L34.79,119.808L84.218,40.203z
	 M284.562,136.064c0-13.036,8.361-24.152,20-28.28V108c0,5.523,4.477,10,10,10s10-4.477,10-10v-0.216
	c11.639,4.128,20,15.243,20,28.28c0,16.542-13.458,30-30,30S284.562,152.606,284.562,136.064z M409.612,83.882
	c-2.191,1.188-3.859,3.151-4.678,5.504l-26.684,76.677h-21.176l32.79-94.225l89.041-48.281l9.533,17.582L409.612,83.882z"/>
<path d="M292.023,453.646c0.792,0,1.598-0.095,2.402-0.293c42.616-10.508,79.458-38.558,101.079-76.956
	c2.71-4.812,1.005-10.91-3.807-13.62c-4.81-2.709-10.91-1.005-13.62,3.807c-18.925,33.609-51.161,58.158-88.44,67.351
	c-5.362,1.322-8.637,6.741-7.315,12.103C283.445,450.596,287.529,453.646,292.023,453.646z"/>
<path d="M256.183,458c5.523,0,10-4.477,10-10s-4.477-10-10-10h-0.188c-5.523,0-10,4.477-10,10s4.477,10,10,10H256.183z"/>
<g>
</g>
<g>
</g>
<g>
</g>
<g>
</g>
<g>
</g>
<g>
</g>
<g>
</g>
<g>
</g>
<g>
</g>
<g>
</g>
<g>
</g>
<g>
</g>
<g>
</g>
<g>
</g>
<g>
</g>
</svg>
